<svg xmlns="http://www.w3.org/2000/svg" viewBox="0 0 32 32" fill="none">
  <rect width="32" height="32" rx="8" fill="#0e0e14"/>
  <rect width="32" height="32" rx="8" fill="url(#grad)" opacity="0.3"/>
  <path d="M16 5C16 5 9 12 9 18C9 22.4 12.1 26 16 26C19.9 26 23 22.4 23 18C23 12 16 5 16 5Z" fill="url(#flame)" opacity="0.15"/>
  <path d="M16 8C16 8 11 14 11 18.5C11 21.5 13.2 24 16 24C18.8 24 21 21.5 21 18.5C21 14 16 8 16 8Z" fill="url(#flame)"/>
  <path d="M16 14C16 14 13 17 13 19.5C13 21 14.3 22 16 22C17.7 22 19 21 19 19.5C19 17 16 14 16 14Z" fill="white" opacity="0.9"/>
  <defs>
    <linearGradient id="grad" x1="0" y1="0" x2="32" y2="32">
      <stop offset="0%" stop-color="#e03030"/>
      <stop offset="100%" stop-color="#b02020"/>
    </linearGradient>
    <linearGradient id="flame" x1="16" y1="5" x2="16" y2="26" gradientUnits="userSpaceOnUse">
      <stop offset="0%" stop-color="#ff6060"/>
      <stop offset="100%" stop-color="#e03030"/>
    </linearGradient>
  </defs>
</svg>
